<svg width="800" height="600" xmlns="http://www.w3.org/2000/svg">
 <!-- Created with Method Draw - http://github.com/duopixel/Method-Draw/ -->

 <g id="Layer_1">
  <title>Layer 1</title>
  <!-- Created with Method Draw - http://github.com/duopixel/Method-Draw/ -->
  <!-- Created with Method Draw - http://github.com/duopixel/Method-Draw/ -->
  <g id="svg_125" stroke="null">
   <path d="m476.13038,241.80581a29.39183,27.23006 0 0 1 -26.15352,3.47002a2.60105,2.40974 0 0 0 -2.37996,0.30604l-11.70471,7.68948l3.01201,3.93029l10.62007,-6.98824a34.76559,32.20858 0 0 0 29.50887,-4.41705a36.91145,34.19661 0 0 0 4.34635,-3.18568l-3.52702,-3.54232a31.34521,29.03977 0 0 1 -3.7221,2.73746l0.00001,0z" id="svg_120" stroke="null"/>
   <path d="m449.93784,205.84286a23.65132,21.91176 0 0 0 -10.77093,20.89726l-32.97347,19.58154l-32.97867,-19.56949a23.54467,21.81296 0 0 0 -10.78134,-20.89244a24.86861,23.03952 0 0 0 -16.95882,-3.91824a19.24774,17.83207 0 0 0 -16.58947,22.78168a24.8504,23.02265 0 0 0 10.27673,13.08971a23.53947,21.80814 0 0 0 24.97005,1.42898l25.5969,16.83685l-24.3588,14.47049a10.1935,9.44377 0 0 0 -2.9704,13.27044a10.21171,9.46064 0 0 0 14.37078,2.40974l29.42304,-19.33093l29.42304,19.34539a10.22211,9.47028 0 1 0 11.41339,-15.69704l-24.38741,-14.45844l25.61511,-16.84408a23.53947,21.80814 0 0 0 24.97005,-1.42416c10.6903,-6.68462 14.18091,-19.29719 7.77453,-28.11684s-20.35059,-10.54502 -31.0643,-3.8604l-0.00001,-0.00002zm-76.17945,76.46586a5.13447,4.75683 0 0 1 -7.05404,-1.19282a4.99661,4.62911 0 0 1 1.45919,-6.5063l26.13792,-15.52836l7.38437,4.85322l-27.92744,18.37426zm72.67324,-4.73032a5.02002,4.6508 0 0 1 -7.81875,4.73514l-72.93074,-47.95382a2.60105,2.40974 0 0 0 -3.03802,0.01928a18.02525,16.6995 0 0 1 -20.57428,-0.56147a19.66911,18.22245 0 0 1 -8.15688,-10.33778a14.04565,13.01259 0 0 1 12.22492,-16.76938a19.67171,18.22486 0 0 1 13.40059,3.13266a18.02525,16.6995 0 0 1 8.25572,17.46338a2.60105,2.40974 0 0 0 1.11845,2.61939l75.3107,44.68139a4.9732,4.60742 0 0 1 2.20829,2.97121zm23.87761,-43.76569a18.02785,16.7019 0 0 1 -20.57688,0.55665a2.60105,2.40974 0 0 0 -3.03802,-0.01928l-28.77538,18.92609l-6.89798,-4.09656l32.44545,-19.27792a2.60105,2.40974 0 0 0 1.11845,-2.61457a18.11629,16.78384 0 0 1 8.26613,-17.46338c8.32335,-5.19781 19.02405,-4.05077 23.83339,2.5495s1.94558,16.24164 -6.37516,21.43945l0,0.00002z" id="svg_121" stroke="null"/>
   <path d="m356.58368,148.34647l-2.87936,-4.01463a33.8136,31.32661 0 0 0 -13.20551,36.54852l4.90297,-1.60971a28.61151,26.50714 0 0 1 11.1845,-30.92419l-0.0026,0l0,0.00001z" id="svg_122" stroke="null"/>
   <path d="m350.92121,187.95054a28.93664,26.80835 0 0 1 -3.31373,-4.26042l-4.50241,2.40974a34.11272,31.60373 0 0 0 3.91457,5.03636l3.90157,-3.18568z" id="svg_123" stroke="null"/>
   <path d="m434.75293,226.34251l7.40518,-34.30023a23.40942,21.68766 0 0 0 -2.15107,-43.29338a23.1181,21.41777 0 0 0 -14.48263,4.66285a23.373,21.65392 0 0 0 -38.66196,0a23.1181,21.41777 0 0 0 -14.48263,-4.66285a23.40942,21.68766 0 0 0 -2.15107,43.28374l7.40518,34.30987l5.09805,-0.94462l-1.45659,-6.76655l49.83605,0l-1.45659,6.74727l5.09805,0.9639l0.00003,0zm-12.55525,-12.53065l2.17708,-14.11625l-5.15007,-0.68437l-2.28112,14.80062l-8.14908,0l0,-26.50714l-5.20209,0l0,26.50714l-8.14908,0l-2.28112,-14.80062l-5.15007,0.68437l2.17708,14.11625l-9.9542,0l-5.30613,-24.57934a2.60105,2.40974 0 0 0 -2.54903,-1.92779a18.20733,16.86818 0 0 1 0,-33.73635a18.02785,16.7019 0 0 1 13.22112,5.30143a2.60105,2.40974 0 0 0 4.2293,-0.60243a18.17091,16.83444 0 0 1 32.72637,0a2.60105,2.40974 0 0 0 4.2293,0.60243a18.02785,16.7019 0 0 1 13.22112,-5.30143a18.20733,16.86818 0 0 1 0,33.73635a2.60105,2.40974 0 0 0 -2.54903,1.92779l-5.30613,24.57934l-9.9542,0l-0.00002,0z" id="svg_124" stroke="null"/>
  </g>
  <text transform="matrix(1,0,0,1,0,0) " fill="#000000" stroke="null" stroke-width="0" stroke-dasharray="null" stroke-opacity="null" fill-opacity="null" opacity="undefined" x="322.9" y="316.6" id="svg_126" font-size="33" font-family="'Quicksand SemiBold'" text-anchor="start" xml:space="preserve" font-weight="normal" font-style="normal">oveneaten</text>
 </g>
</svg>